<svg xmlns="http://www.w3.org/2000/svg" version="1.1" xmlns:xlink="http://www.w3.org/1999/xlink" xmlns:svgjs="http://svgjs.dev/svgjs" viewBox="0 0 1920 1080"><rect width="1920" height="1080" fill="#4c0ebe"></rect><g transform="matrix(1.15,0,0,1.15,-141.5732419967651,-81)"><path d="M0,-1080C-4.848443752625495,-986.1485591955708,-40.78114943461552,-651.7011435615902,-29.090662515752967,-516.8913551734249C-17.400175596890413,-382.0815667852596,70.68582718244838,-417.4913946570755,70.14292151317534,-271.1412696710078C69.6000158439023,-124.79114468494015,-31.38430521668144,207.02278968567575,-32.34809653139121,361.2093947429811C-33.31188784610097,515.3959998002864,46.68799629333269,507.0866211032427,64.36017362491674,653.9783606728242C82.03235095650079,800.8701002424058,84.64986675705507,1065.3932234014956,73.68496745811308,1242.5598321604703C62.72006815917109,1419.726440919445,10.851605740950333,1564.0713185867503,-1.4292221687351798,1716.978013226672C-13.710050078420693,1869.8847078665935,-0.23820369478919665,2086.1630022044455,0,2160L 1920 2160 L 1920 -1080 Z" fill="url(&quot;#SvgjsLinearGradient1102&quot;)"></path><path d="M320,-1080C314.93336915034183,-981.9417907709096,299.3258548732014,-688.8798658066347,289.60021490205105,-491.6507446254579C279.8745749309007,-294.42162344428107,243.58705939561514,-127.20871279986957,261.64616017309766,103.37472708706076C279.70526095058017,333.95816697399107,385.07798651797026,659.1671787308987,397.9548195669461,891.849894696124C410.831652615922,1124.5326106613493,351.8996283947771,1288.1126719944332,338.90715846695275,1499.4710228784124C325.9146885391284,1710.8293737623917,323.15119307782544,2049.911837146402,320,2160L 1920 2160 L 1920 -1080 Z" fill="url(&quot;#SvgjsLinearGradient1103&quot;)"></path><path d="M640,-1080C638.269900964447,-1008.3604916282014,646.1248978465205,-799.0277407712972,629.6194057866815,-650.1629497692084C613.1139137268424,-501.29815876711956,530.5801394245843,-358.77279296842914,540.9670476409658,-186.81125398746724C551.3539558573473,-14.849715006505335,666.4434867598206,238.08340619441898,691.94085508497,381.60628411656313C717.4382234101195,525.1291620387072,685.6562168625403,551.2129584746363,693.9512575918625,674.3260135453977C702.2462983211847,797.4390686161591,730.2707243747766,962.3569152816162,741.7110994609034,1120.284614541132C753.1514745470301,1278.2123138006477,779.5453580187741,1448.606311526014,762.5935081086235,1621.892209102492C745.6416581984729,1795.17810667897,660.4322513514372,2070.3153681837484,640,2160L 1920 2160 L 1920 -1080 Z" fill="url(&quot;#SvgjsLinearGradient1104&quot;)"></path><path d="M960,-1080C968.3304448913218,-957.7331123756384,997.3554482478028,-574.7989317664751,1009.9826693479306,-346.39867425383017C1022.6098904480584,-117.9984167411852,1060.6096603964477,97.355217496638,1035.763326600767,290.4015450758699C1010.9169928050862,483.4478726551017,868.9914427191609,591.288685941007,860.9046665738463,811.8792912215611C852.8178904285317,1032.4698965021153,970.7267808245206,1389.2583919627882,987.2426697288795,1613.9451767591947C1003.7585586332384,1838.6319615556013,964.5404449548132,2068.990862793199,960,2160L 1920 2160 L 1920 -1080 Z" fill="url(&quot;#SvgjsLinearGradient1105&quot;)"></path><path d="M1280,-1080C1298.5786880200742,-1033.0679111556324,1397.636360038216,-938.9125226509775,1391.4721281204454,-798.4074669337941C1385.3078962026748,-657.9024112166107,1258.3792186970422,-396.78784475176906,1243.0146084933763,-236.9696656969C1227.6499982897103,-77.15148664203096,1311.032542117833,43.40193328835015,1299.2844668984496,160.5016073954202C1287.5363916790664,277.6012815024902,1181.5974203972135,317.61337504350763,1172.526157177077,465.6283789455203C1163.4548939569406,613.643382847533,1231.7647920030904,880.6185738691396,1244.8568875776311,1048.5916308074961C1257.9489831521719,1216.5646877458526,1246.641731917049,1356.3338094993994,1251.0787306243215,1473.4667205756596C1255.515729331594,1590.5996316519197,1266.6586682586528,1636.9668840276668,1271.478879821266,1751.3890972650568C1276.2990913838792,1865.8113105024468,1278.5798133035444,2091.8981828775095,1280,2160L 1920 2160 L 1920 -1080 Z" fill="url(&quot;#SvgjsLinearGradient1106&quot;)"></path><path d="M1600,-1080C1596.8085951519604,-999.1456547881754,1580.7420968446115,-763.4618217798561,1580.8515709117619,-594.8739287290524C1580.9610449789122,-426.2860356782487,1617.8336020140396,-226.82921397517097,1600.6568444029024,-68.47264169517797C1583.4800867917652,89.88393058481503,1471.9239620719982,218.65382916589203,1477.791025244939,355.26550495090555C1483.6580884178798,491.87718073591907,1632.4504277374615,601.9889265782242,1635.8592234405476,751.1974130149031C1639.2680191436336,900.405899451582,1508.9744265063157,1108.2100722108014,1498.2437994634554,1250.516423570979C1487.513172420595,1392.8227749311566,1554.5160944272952,1453.4549251044652,1571.475461183386,1605.0355211759688C1588.4348279394767,1756.6161172474724,1595.245910197231,2067.505920195995,1600,2160L 1920 2160 L 1920 -1080 Z" fill="url(&quot;#SvgjsLinearGradient1107&quot;)"></path></g><defs><linearGradient x1="0.1" y1="0" x2="0" y2="1" id="SvgjsLinearGradient1102"><stop stop-color="#4c0ebe" offset="0"></stop><stop stop-color="#2f0ebe" offset="0"></stop></linearGradient><linearGradient x1="0.1" y1="0" x2="0" y2="1" id="SvgjsLinearGradient1103"><stop stop-color="#6921ef" offset="0"></stop><stop stop-color="#4721ef" offset="0.16666666666666666"></stop></linearGradient><linearGradient x1="0.1" y1="0" x2="0" y2="1" id="SvgjsLinearGradient1104"><stop stop-color="#9460f3" offset="0"></stop><stop stop-color="#7c60f3" offset="0.3333333333333333"></stop></linearGradient><linearGradient x1="0.1" y1="0" x2="0" y2="1" id="SvgjsLinearGradient1105"><stop stop-color="#be9ef8" offset="0"></stop><stop stop-color="#af9ef8" offset="0.5"></stop></linearGradient><linearGradient x1="0.1" y1="0" x2="0" y2="1" id="SvgjsLinearGradient1106"><stop stop-color="#e8ddfd" offset="0"></stop><stop stop-color="#e3ddfd" offset="0.6666666666666666"></stop></linearGradient><linearGradient x1="0.1" y1="0" x2="0" y2="1" id="SvgjsLinearGradient1107"><stop stop-color="#ffffff" offset="0"></stop><stop stop-color="#ffffff" offset="0.8333333333333334"></stop></linearGradient></defs></svg>